<svg xmlns="http://www.w3.org/2000/svg" width="32" height="32" viewBox="0 0 32 32"><path fill="#fff" d="M16 3.737c-6.126 0-11.127 1.647-11.127 3.692 0 .534 1.336 8.26 1.866 11.32.233 1.372 3.782 3.386 9.254 3.386L16 22.12v.016c5.473 0 9.02-2.015 9.26-3.388.53-3.064 1.866-10.786 1.866-11.325 0-2.046-5.003-3.693-11.13-3.693zm0 15.922c-1.953 0-3.537-1.59-3.537-3.54s1.584-3.54 3.537-3.54c1.954 0 3.537 1.584 3.537 3.537S17.953 19.66 16 19.66zm-.002-11.09c-3.936-.01-7.125-.69-7.124-1.53s3.193-1.51 7.13-1.507c3.935.006 7.124.69 7.123 1.528s-3.193 1.51-7.13 1.506zm8 12.66c-.17 0-.305.12-.305.12s-2.74 2.17-7.693 2.17c-4.953 0-7.693-2.17-7.693-2.17s-.136-.12-.305-.12c-.202 0-.394.132-.394.43 0 .033.003.064.01.095.424 2.275.735 3.89.79 4.136.37 1.676 3.647 2.94 7.59 2.94H16c3.945 0 7.22-1.264 7.59-2.938.056-.246.366-1.86.792-4.137.006-.032.01-.063.01-.095 0-.3-.193-.433-.394-.433zm-5.968-5.08c0 1.06-.863 1.923-1.927 1.923s-1.927-.863-1.927-1.927.863-1.928 1.927-1.928 1.927.862 1.927 1.926z"/></svg>