<svg xmlns="http://www.w3.org/2000/svg" width="32" height="32" viewBox="0 0 32 32"><path fill="#fff" d="M13.43 10.26c-.652 0-1.182.53-1.182 1.18s.53 1.183 1.182 1.183c.653 0 1.18-.53 1.18-1.182s-.528-1.18-1.18-1.18zm0 1.086c-.38 0-.688-.192-.688-.428s.308-.428.688-.428c.38 0 .688.192.688.428s-.308.428-.688.428zm13.464 4.71c-1.165-1.12-6.992-1.82-8.83-2.023.09-.21.165-.428.228-.652.25-.11.52-.21.8-.292.035.1.196.486.287.67 3.692.1 3.882-2.748 4.032-3.53.147-.762.14-1.5 1.408-2.848-1.89-.55-4.605.852-5.515 2.942-.342-.13-.685-.223-1.024-.28-.24-.98-1.506-3.71-4.825-3.71-2.15 0-4.318.887-5.948 2.435-.88.834-1.57 1.824-2.052 2.944-.52 1.21-.785 2.54-.785 3.958 0 4.934 3.37 9.257 5.27 9.257.832 0 1.547-.622 1.715-1.18.14.383.572 1.572.714 1.874.21.447 1.18.834 1.6.37.546.302 1.547.484 2.09-.324 1.05.222 1.98-.404 2-1.152.516-.025.77-.75.657-1.325-.084-.425-.97-1.948-1.316-2.473.685.557 2.42.714 2.63 0 1.102.866 2.822.412 2.96-.293 1.34.347 2.876-.418 2.624-1.344 2.153-.15 1.877-2.44 1.273-3.02zm-5.61-3.8c-.566-.222-1.286-.363-1.79-.363-.715 0-1.15.405-1.824.405-.14 0-.478 0-.75-.096.18.187.4.288.83.288.255 0 .763-.13 1.174-.254.006.087.015.172.027.258-.77.184-1.573.674-1.81.8-.52-1.148-.07-2.234.34-2.735 1.85 0 3.35 1.27 3.808 1.693zm.802-.085l-.283-.26c-.29-.273-.594-.52-.906-.74.464-.92 1.047-1.924 1.783-2.546-.81.328-1.61 1.304-2.084 2.347-.24-.154-.486-.29-.733-.41.66-1.41 2.193-2.585 3.883-2.677-1.132 1.028-.707 3.076-1.66 4.29zm-2.325.96c-.12-.27-.25-.72-.23-.98.21-.004.613.075.677.09-.025.124-.038.396-.038.43.04-.07.15-.305.195-.4.405.078.936.207 1.247.35-.366.24-.987.496-1.847.514zm-2.52-3.17c-1.475 1.497-.892 3.39-.354 4.246-.765 1.274-2.27 2.144-4.016 2.54 1.96 0 3.114-.505 3.785-1 .428-.315.66-.626.78-.8 2.907.19 7.51 1.126 7.96 1.43.18.12.366.39.394.648-2.188-.305-6.127-.627-7.158-.68.733.103 6.073 1.114 7 1.35-.283.46-.925.785-1.892.56.525.71-.49 1.565-1.904 1.095.31.7-.947 1.327-2.378.6.017.7-1.776.78-2.484.006.015.09.1.268.135.346-.23 2.042-1.9 3.31-3.616 3.31-4.193 0-7.847-3.408-7.847-7.94 0-4.79 3.54-8.367 7.813-8.367 2.45 0 3.555 1.927 3.78 2.657z"/></svg>