<svg xmlns="http://www.w3.org/2000/svg" width="32" height="32" viewBox="0 0 32 32"><path fill="#fff" d="M27.242 12.687c-.005-.027-.01-.055-.017-.08-.004-.017-.01-.032-.015-.048-.008-.03-.015-.05-.025-.07l-.022-.05c-.01-.02-.02-.045-.033-.066l-.028-.045-.04-.06-.034-.04c-.015-.02-.03-.037-.048-.054-.013-.014-.025-.027-.04-.04-.016-.015-.035-.03-.054-.045l-.044-.032-.016-.014-10.29-6.86c-.326-.217-.75-.217-1.074 0l-10.29 6.86-.017.012c-.015.01-.03.02-.044.032l-.05.046-.04.04-.05.05-.03.043c-.014.02-.03.04-.04.06l-.03.044-.032.065-.022.047c-.01.022-.018.046-.025.07-.007.015-.013.03-.017.046-.007.028-.012.055-.017.08l-.008.044c-.006.04-.01.083-.01.125v6.86c0 .043.003.085.01.126 0 .015.004.03.007.043.005.027.01.054.017.08l.017.05.023.07.024.047c.01.02.02.042.033.064l.026.045.04.06.034.04c.015.02.03.036.048.053l.038.04.055.043.046.034.016.012 10.29 6.86c.163.107.35.162.537.162s.373-.054.536-.163l10.29-6.86.016-.013.043-.033c.02-.015.037-.03.055-.046l.04-.04.046-.05c.012-.014.023-.027.033-.042l.04-.06.03-.042.03-.066.022-.048c.01-.024.017-.048.025-.07l.014-.05.016-.08.01-.042c.003-.04.007-.083.007-.125v-6.86c0-.044-.003-.086-.01-.127 0-.015-.004-.03-.007-.043zM16 18.575l-3.422-2.29L16 13.998l3.422 2.29L16 18.574zm-.967-6.26l-4.195 2.807-3.386-2.265 7.58-5.054v4.513zm-5.935 3.97l-2.42 1.62v-3.238l2.42 1.62zm1.74 1.165l4.195 2.805v4.513l-7.58-5.054 3.385-2.265zm6.13 2.805l4.194-2.805 3.386 2.265-7.58 5.054V20.25zm5.934-3.97l2.42-1.618v3.238l-2.42-1.62zm-1.74-1.163l-4.195-2.806V7.803l7.58 5.054-3.385 2.265z"/></svg>