<svg xmlns="http://www.w3.org/2000/svg" width="32" height="32" viewBox="0 0 32 32"><path fill="#fff" d="M19.906 17.847c.43 0 .79.21 1.102.636.31.422.468.944.468 1.56 0 .62-.156 1.14-.468 1.563s-.678.634-1.102.634c-.45 0-.84-.21-1.15-.634-.308-.422-.466-.944-.466-1.563s.153-1.14.465-1.56c.312-.427.702-.636 1.15-.636zm5.52-5.715c1.2 1.303 1.808 2.884 1.808 4.738 0 1.203-.142 2.286-.415 3.25-.28.957-.63 1.742-1.05 2.342-.43.605-.946 1.136-1.568 1.585-.622.46-1.195.79-1.712 1.002s-1.11.37-1.784.49c-.666.112-1.17.18-1.518.193-.337.015-.703.022-1.098.022-.088 0-.385.01-.88.023-.48.02-.895.03-1.217.03s-.736-.01-1.218-.03c-.49-.015-.79-.024-.88-.024-.394 0-.763-.006-1.097-.023-.35-.016-.85-.08-1.513-.197-.677-.113-1.27-.274-1.788-.49-.52-.21-1.09-.542-1.71-1.003-.624-.454-1.14-.983-1.568-1.585-.42-.6-.774-1.385-1.05-2.343-.27-.964-.414-2.047-.414-3.25 0-1.854.606-3.435 1.81-4.738-.132-.065-.14-.714-.02-1.952.107-1.24.37-2.38.797-3.42 1.503.16 3.352 1.007 5.567 2.538.75-.195 1.773-.295 3.08-.295 1.37 0 2.393.1 3.08.295 1.007-.68 1.973-1.24 2.894-1.663.936-.42 1.61-.668 2.033-.73l.634-.147c.43 1.04.694 2.184.8 3.42.126 1.237.12 1.887-.013 1.952zm-9.374 12.55c2.703 0 4.74-.323 6.125-.972 1.38-.65 2.082-1.99 2.082-4.008 0-1.17-.446-2.15-1.327-2.932-.454-.424-.985-.68-1.595-.78-.595-.1-1.514-.1-2.755 0-1.236.1-2.082.144-2.537.144-.62 0-1.29-.033-2.127-.098-.834-.062-1.487-.102-1.954-.122-.478-.015-.986.045-1.538.172-.558.133-1.01.357-1.374.68-.84.75-1.267 1.726-1.267 2.933 0 2.014.683 3.352 2.05 4 1.364.654 3.396.976 6.1.976zm-3.91-6.835c.425 0 .79.21 1.1.636.31.422.466.944.466 1.56 0 .62-.155 1.14-.467 1.563-.304.422-.672.634-1.093.634-.455 0-.84-.21-1.153-.634-.31-.422-.466-.944-.466-1.563s.155-1.14.467-1.56c.313-.427.7-.636 1.154-.636z"/></svg>