<svg xmlns="http://www.w3.org/2000/svg" width="32" height="32" viewBox="0 0 32 32"><path fill="#fff" d="M6.368 15.67H3.715c-.068 0-.124.056-.124.125v1.296c0 .07.06.13.13.13h1.03v1.61s-.232.078-.874.078c-.758 0-1.817-.278-1.817-2.604 0-2.327 1.1-2.633 2.132-2.633.896 0 1.282.157 1.527.234.077.025.147-.052.147-.12l.295-1.254c0-.035-.01-.07-.047-.1-.1-.07-.71-.41-2.246-.41-1.77 0-3.59.75-3.59 4.373s2.08 4.16 3.833 4.16c1.45 0 2.332-.62 2.332-.62.036-.02.04-.07.04-.093v-4.044c0-.07-.056-.124-.124-.124zm13.415-3.343H18.29c-.07 0-.124.056-.124.124v2.89h-2.328v-2.89c0-.066-.056-.12-.123-.12H14.22c-.066 0-.12.055-.12.123v7.817c0 .07.054.124.12.124h1.495c.068 0 .123-.055.123-.124v-3.342h2.328l-.005 3.342c0 .07.06.124.127.124h1.494c.07 0 .12-.057.12-.125l.006-7.817c0-.07-.055-.124-.122-.124zm-11.63.177c-.533 0-.964.435-.964.972s.43.973.96.973.96-.44.96-.978c0-.537-.43-.972-.962-.972zm.856 2.507c0-.063-.06-.12-.127-.12h-1.49c-.07 0-.128.07-.128.14v5.167c0 .15.093.197.216.197h1.343c.146 0 .185-.07.185-.2v-5.178zm16.55-.11h-1.48c-.068 0-.12.058-.12.127v3.83s-.378.278-.914.278c-.534 0-.677-.24-.677-.766v-3.343c0-.07-.056-.125-.123-.125h-1.503c-.07 0-.123.056-.123.125v3.595s.867 1.933 2.058 1.933c.973 0 1.763-.54 1.763-.54s.038.284.056.317c.016.034.06.068.11.068h.95c.07 0 .123-.056.123-.125l.004-5.25c-.003-.068-.06-.124-.126-.124zm4.06-.174c-.84 0-1.415.376-1.415.376v-2.646c0-.07-.056-.124-.122-.124h-1.5c-.066 0-.12.054-.12.122l-.005 7.815c0 .07.056.123.123.123h1.045c.046 0 .08-.02.108-.063s.063-.36.063-.36.61.58 1.77.58c1.36 0 2.14-.69 2.14-3.1 0-2.408-1.247-2.723-2.09-2.723zm-.585 4.404c-.514-.017-.862-.25-.862-.25v-2.476s.344-.21.767-.248c.535-.047 1.05.114 1.05 1.387-.002 1.34-.234 1.607-.953 1.586zM13.32 19.1c-.065 0-.232.026-.404.026-.55 0-.738-.256-.738-.587v-2.2h1.12c.07 0 .123-.057.123-.127V15.01c0-.07-.053-.126-.122-.126h-1.12v-1.48c0-.056-.03-.084-.095-.084H10.56c-.06 0-.092.026-.092.083v1.53s-.765.184-.817.2-.083.062-.083.118v.967c0 .07.056.125.123.125h.78v2.31c0 1.72 1.205 1.888 2.018 1.888.37 0 .815-.12.89-.147.044-.016.07-.062.07-.11v-1.06c0-.068-.058-.124-.122-.124z"/></svg>