<svg xmlns="http://www.w3.org/2000/svg" width="32" height="32" viewBox="0 0 32 32"><path fill="#fff" d="M27.226 15.777c-.15-.168-2.22-2.76-2.586-3.2s-.543-.36-.767-.33c-.225.034-2.845.474-3.15.525s-.495.173-.308.435c.166.233 1.89 2.675 2.27 3.213l-6.85 1.64-5.447-9.106c-.217-.322-.262-.434-.755-.41S5.36 8.878 5.09 8.9c-.268.023-.564.142-.294.778s4.562 9.885 4.68 10.154.432.706 1.16.53c.746-.178 3.334-.854 4.748-1.224.747 1.353 2.27 4.097 2.553 4.49.376.526.635.44 1.213.264.45-.137 7.056-2.512 7.354-2.634s.48-.21.28-.508c-.148-.22-1.89-2.553-2.803-3.774l3.09-.822c.276-.075.314-.21.164-.38zm-12.452 2.546c-.082.017-3.918.936-4.123.982s-.2.023-.223-.047S5.867 9.83 5.8 9.714s-.06-.21 0-.21 3.622-.32 3.748-.325.113.02.16.1L14.82 18.1s.04.2-.042.216zM25.59 20.35c.06.096.122.157-.07.227s-6.493 2.196-6.615 2.25c-.122.052-.22.07-.376-.16s-2.21-3.774-2.21-3.774L23 17.155c.166-.052.22-.087.324.08s2.205 3.018 2.266 3.114zm.428-4.74c-.15.032-2.602.64-2.602.64l-2.006-2.752c-.056-.08-.103-.16.037-.178s2.42-.43 2.522-.454c.1-.023.19-.05.313.122s1.86 2.368 1.926 2.452-.047.136-.197.168z"/></svg>