<svg xmlns="http://www.w3.org/2000/svg" width="32" height="32" viewBox="0 0 32 32"><path fill="#fff" d="M15.534 8.41c0 .103-.102.103-.102.103h-.102c-.102 0-.102-.102-.204-.204 0 0-.102-.107-.102-.21s0-.1.102-.1l.204.102c.102.102.204.204.204.306zm-1.836-1.02c0-.51-.204-.815-.51-.815 0 0 0 .102-.102.102v.204h.306c0 .21.102.31.102.51h.204zm3.57-.51c.204 0 .306.205.408.51h.204c-.102-.1-.102-.203-.102-.305s0-.204-.102-.306-.204-.21-.306-.21c0 0-.102.103-.204.103 0 .102.102.102.102.204zm-3.06 1.633c-.102 0-.102 0-.102-.102s0-.2.102-.3c.204 0 .306-.103.306-.103.102 0 .102.102.102.102 0 .1-.102.203-.306.407h-.102zm-1.122-.102c-.408-.2-.51-.51-.51-1.02 0-.3 0-.51.204-.71.102-.203.306-.305.51-.305s.306.103.51.307c.102.306.204.61.204.918v.2h.102v-.103c.102 0 .102-.204.102-.612 0-.306 0-.612-.204-.918s-.408-.51-.816-.51c-.306 0-.612.204-.714.51-.204.408-.245.714-.245 1.224 0 .41.14.82.55 1.23.1-.103.2-.103.302-.205zm12.748 14.38c.102 0 .102-.04.102-.13 0-.222-.102-.49-.408-.783-.306-.306-.816-.5-1.428-.58-.102-.01-.204-.01-.204-.01-.102-.02-.102-.02-.204-.02-.102-.01-.306-.032-.408-.052.306-.948.408-1.784.408-2.518 0-1.02-.204-1.734-.612-2.346s-.816-.92-1.326-1.02c-.102.1-.102.1-.102.204.51.204 1.02.612 1.326 1.224.306.714.408 1.326.408 2.04 0 .57-.102 1.418-.51 2.5-.408.162-.816.54-1.122 1.13 0 .093 0 .144.102.144 0 0 .102-.09.204-.263.204-.174.306-.348.51-.52.306-.174.51-.266.816-.266.51 0 1.02.07 1.326.215.408.132.612.274.714.44.102.15.204.294.306.426 0 .13.102.194.102.194zM16.452 8.008c-.102-.102-.102-.306-.102-.51 0-.408 0-.612.204-.918.204-.205.408-.307.612-.307.306 0 .51.204.714.408.102.307.204.51.204.817 0 .51-.204.816-.612.918 0 0 .102.104.204.104.204 0 .306.1.51.203.102-.612.204-1.02.204-1.53 0-.612-.102-1.02-.306-1.326-.306-.305-.612-.407-1.02-.407-.306 0-.612.1-.918.305-.204.306-.306.51-.306.816 0 .51.102.92.306 1.327.102 0 .204.103.306.103zm1.224 1.632c-1.326.917-2.346 1.325-3.162 1.325-.714 0-1.428-.305-2.04-.815.102.203.204.407.306.51l.612.61c.408.408.918.61 1.428.61.714 0 1.53-.41 2.55-1.12l.918-.613c.204-.204.408-.408.408-.714 0-.1 0-.203-.102-.203-.102-.206-.612-.51-1.632-.818-.918-.407-1.632-.61-2.04-.61-.306 0-.816.203-1.53.61-.612.41-1.02.817-1.02 1.225 0 0 .102.102.204.306.612.51 1.224.817 1.836.817.816 0 1.836-.407 3.162-1.427v.203c.102 0 .102.102.102.102zm2.345 20.6c.41.767 1.127 1.152 1.94 1.152.207 0 .41-.03.61-.092.21-.04.41-.112.51-.194.107-.07.21-.143.31-.224.205-.07.205-.124.307-.175l1.734-1.5c.408-.324.816-.61 1.326-.856.408-.247.816-.41 1.02-.5.306-.084.51-.206.714-.37.1-.152.202-.346.202-.59 0-.297-.203-.52-.407-.684s-.408-.275-.612-.347-.407-.237-.713-.51c-.203-.267-.407-.634-.51-1.114l-.1-.59c-.103-.276-.103-.48-.205-.593 0-.03 0-.04-.1-.04s-.307.09-.41.264c-.203.17-.407.365-.61.57-.103.203-.41.386-.613.56-.305.173-.61.265-.815.265-.815 0-1.223-.223-1.53-.662-.203-.326-.305-.704-.407-1.132-.204-.172-.306-.264-.51-.264-.51 0-.714.53-.714 1.6v3.173c0 .09-.103.294-.103.61-.1.316-.1.675-.1 1.08l-.205 1.133v.017zm-14.783-.543c.948.14 2.04.435 3.274.888 1.234.45 1.99.684 2.264.684.715 0 1.307-.317 1.796-.928.1-.2.1-.43.1-.7 0-.963-.58-2.182-1.744-3.66l-.694-.93c-.143-.192-.316-.49-.54-.885-.214-.398-.408-.704-.56-.918-.134-.236-.348-.47-.623-.705-.268-.234-.57-.386-.91-.468-.43.082-.726.224-.87.418s-.223.408-.244.632c-.03.214-.092.357-.194.428-.102.06-.275.112-.51.163-.05 0-.143 0-.275.01H5.23c-.54 0-.907.06-1.1.163-.255.296-.39.63-.39.99 0 .16.043.438.124.825.082.378.122.684.122.898 0 .42-.123.838-.378 1.256-.254.44-.387.764-.387.996.104.395.777.673 2.01.836zM8.63 20.42c0-.704.183-1.48.56-2.397.367-.918.734-1.53 1.09-1.938-.02-.102-.07-.102-.152-.102l-.102-.102c-.296.31-.653 1.02-1.08 2.04-.43.92-.654 1.77-.654 2.39 0 .46.112.86.316 1.205.224.338.765.827 1.622 1.45l1.08.703c1.153 1 1.765 1.693 1.765 2.1 0 .215-.102.43-.408.664-.204.245-.48.367-.714.367-.02 0-.03.02-.03.07 0 .01.1.214.315.612.428.58 1.346.865 2.57.865 2.244 0 3.977-.918 5.303-2.754 0-.51 0-.824-.1-.96v-.374c0-.664.1-1.164.31-1.49s.407-.48.713-.48c.204 0 .408.07.61.225.104-.784.104-1.47.104-2.08 0-.93 0-1.693-.204-2.407-.104-.612-.308-1.122-.51-1.53-.206-.306-.41-.612-.614-.918s-.307-.612-.51-.918c-.103-.41-.205-.715-.205-1.225-.306-.51-.51-1.02-.816-1.53-.205-.51-.41-1.02-.613-1.428l-.918.713c-1.02.714-1.837 1.02-2.55 1.02-.613 0-1.123-.102-1.43-.51l-.612-.51c0 .306-.102.714-.306 1.12l-.643 1.226c-.287.713-.44 1.12-.47 1.427-.04.204-.07.408-.09.408l-.767 1.53c-.824 1.53-1.242 2.948-1.242 4.12 0 .236.02.48.06.725-.457-.316-.68-.755-.68-1.326zm7.302 9.648c-1.326 0-2.346.18-3.06.535v-.03c-.51.61-1.08.927-1.877.927-.5 0-1.285-.194-2.346-.58-1.076-.368-2.02-.65-2.85-.835-.08-.023-.265-.058-.56-.105-.287-.046-.55-.093-.786-.14-.214-.046-.46-.115-.724-.21-.254-.08-.46-.185-.61-.312-.14-.13-.21-.273-.21-.436s.035-.337.104-.523c.065-.117.137-.23.208-.33.07-.11.133-.215.173-.317.06-.092.102-.184.143-.286.04-.09.08-.184.1-.296.02-.1.04-.203.04-.305s-.04-.41-.12-.95c-.083-.53-.123-.867-.123-1.01 0-.45.1-.806.325-1.06s.44-.39.663-.39H5.6c.093 0 .236-.05.45-.172.07-.164.133-.297.173-.42.05-.12.07-.213.092-.254.02-.06.04-.123.06-.174.042-.07.093-.153.164-.235-.087-.1-.127-.234-.127-.397 0-.112 0-.214.02-.275 0-.368.173-.888.54-1.57l.357-.645c.297-.55.52-.96.684-1.367.173-.407.357-1.02.56-1.835.164-.713.552-1.427 1.164-2.14l.765-.918c.53-.612.877-1.122 1.07-1.53s.297-.918.297-1.326c0-.204-.05-.816-.163-1.836-.103-1.02-.154-2.04-.154-2.957 0-.714.06-1.224.194-1.734s.37-1.02.716-1.43c.306-.408.714-.816 1.326-1.02s1.327-.3 2.143-.3c.306 0 .612 0 .918.1.308 0 .716.103 1.226.307.408.204.816.408 1.122.714.405.307.71.817 1.02 1.327.2.612.405 1.224.51 2.04.1.51.1 1.02.2 1.734 0 .613.104 1.02.104 1.327.102.306.102.714.204 1.224.1.41.203.817.407 1.123.204.408.408.816.714 1.224.305.51.713 1.02 1.12 1.632.92 1.02 1.633 2.14 2.04 3.262.51 1.02.817 2.346.817 3.763 0 .704-.103 1.387-.307 2.05.206 0 .308.082.41.224s.204.45.306.927l.102.755c.102.224.204.44.51.622.204.184.408.337.714.46.204.1.51.244.714.427.203.205.305.42.305.643 0 .347-.1.602-.306.785-.204.2-.408.343-.714.435-.203.102-.61.306-1.223.594-.51.302-1.02.67-1.53 1.1l-1.02.87c-.408.397-.816.682-1.122.856-.305.184-.713.275-1.12.275l-.715-.08c-.817-.214-1.327-.62-1.633-1.244-1.632-.198-2.958-.296-3.774-.296z"/></svg>