<svg xmlns="http://www.w3.org/2000/svg" width="32" height="32" viewBox="0 0 32 32"><path fill="#fff" d="M5.082 5.593c-.564.564-.423 1.213.564 2.68.508.76 1.1 1.945 1.326 2.622.226.705.677 1.664.987 2.143.56.79.56.96.192 2.397-.226.902-.31 2.03-.197 2.736.168 1.19 1.127 2.91 1.72 3.107.507.17 1.24-.733 1.268-1.55 0-.706.028-.734.338-.227.537.873 2.23 2.734 2.37 2.593.056-.055-.31-.79-.846-1.606-.51-.846-1.1-1.946-1.326-2.454-.31-.847-.423-.903-.79-.51-.226.227-.508.875-.59 1.467-.228 1.353-.735 1.522-1.13.366s-.395-3.13 0-4.484c.282-.93.254-1.184-.226-1.89-.31-.423-.79-1.438-1.044-2.256-.252-.79-.844-1.974-1.323-2.595-1.1-1.55-1.1-2.114.055-1.89.48.086 1.214.42 1.665.73.422.31 1.155.568 1.606.568 1.356 0 3.725 1.326 5.445 3.046 1.325 1.326 2 2.398 3.44 5.303 1.692 3.44 1.833 3.638 2.877 3.976 1.24.423 3.836 2 3.836 2.34 0 .114-.65.283-1.438.34-2.115.225-2.313.62-.93 1.86.648.564 1.86 1.438 2.735 1.918l1.578.903-.732-.93c-.422-.51-1.296-1.3-1.973-1.72s-1.214-.876-1.214-.99c0-.112.48-.31 1.072-.394 1.58-.283 2.03-.424 2.03-.706 0-.42-2.85-2.564-4.203-3.16-1.156-.533-1.297-.76-2.792-3.832-1.326-2.82-1.86-3.61-3.553-5.3-2.17-2.17-3.666-3.103-5.584-3.385-.65-.112-1.552-.45-1.947-.732-.93-.706-2.82-.96-3.27-.48z"/></svg>