<svg xmlns="http://www.w3.org/2000/svg" width="32" height="32" viewBox="0 0 32 32"><path fill="#fff" d="M5.304 16.563c0-.095-.05-.183-.132-.23l-2.192-1.26c-.037-.023-.08-.034-.12-.036h-.024c-.042.002-.083.013-.12.035l-2.192 1.26c-.082.048-.133.136-.133.23L.4 19.96c0 .044.025.09.066.11.04.025.09.025.132 0l1.302-.745c.082-.05.132-.135.132-.23V17.51c0-.094.05-.182.13-.23l.556-.318c.04-.024.086-.035.133-.035.045 0 .09.012.13.035l.556.32c.082.046.132.134.132.228v1.587c0 .095.05.18.133.23l1.3.746c.04.024.093.024.133 0 .04-.023.066-.067.066-.114v-3.4zm11.702-4.67c-.04-.022-.09-.02-.13.003s-.066.067-.066.114v3.363c0 .033-.018.064-.046.08s-.064.017-.093 0l-.544-.316c-.082-.047-.183-.047-.265 0l-2.192 1.265c-.082.047-.133.135-.133.23v2.53c0 .095.05.182.132.23l2.192 1.265c.08.047.182.047.264 0l2.194-1.266c.082-.043.132-.13.132-.224v-6.31c0-.095-.054-.183-.138-.23l-1.305-.728zm-.203 6.438c0 .03-.012.05-.033.06l-.753.436c-.02.012-.046.012-.066 0l-.75-.434c-.02-.012-.03-.034-.03-.057v-.868c0-.024.012-.046.032-.057l.753-.435c.02-.012.047-.012.067 0l.75.435c.02.012.034.034.034.057v.87zm8.047-.89c.08-.044.132-.13.132-.23v-.61c0-.093-.05-.18-.132-.23l-2.178-1.262c-.082-.048-.183-.048-.265 0l-2.192 1.265c-.082.047-.132.135-.132.23v2.53c0 .094.05.18.134.23l2.178 1.24c.08.046.18.046.26 0l1.317-.73c.04-.024.067-.07.068-.116s-.025-.092-.066-.116l-2.206-1.265c-.04-.022-.066-.066-.066-.114v-.792c0-.047.025-.09.066-.115l.687-.395c.04-.023.09-.023.132 0l.687.395c.04.024.066.067.066.115v.624c0 .047.025.09.066.115s.092.024.133 0l1.31-.762zM9.29 15.09c.083-.047.184-.047.266 0l2.192 1.265c.082.047.132.134.132.23v2.53c0 .096-.05.183-.132.23L9.556 20.61c-.082.048-.183.048-.265 0L7.1 19.346c-.083-.047-.133-.135-.133-.23v-2.53c0-.096.05-.183.132-.23l2.19-1.265zm19.816 5.557c-.075 0-.15-.02-.217-.058l-.69-.41c-.108-.06-.057-.08-.02-.09.133-.05.16-.06.31-.14.013-.01.034-.01.05 0l.53.314c.02.01.046.01.064 0L31.2 19.07c.02-.01.03-.032.03-.055V16.63c0-.022-.01-.044-.03-.056l-2.066-1.192c-.02-.01-.045-.01-.064 0l-2.065 1.192c-.02.01-.033.034-.033.057v2.39c0 .02.013.043.032.054l.566.328c.308.156.496-.025.496-.207V16.84c0-.033.027-.06.06-.06h.262c.032 0 .06.027.06.06v2.355c0 .41-.224.645-.613.645-.12 0-.214 0-.476-.13l-.54-.31c-.138-.078-.22-.223-.22-.378v-2.39c0-.155.082-.3.216-.377l2.066-1.194c.13-.076.305-.076.434 0l2.068 1.19c.134.08.217.224.217.38v2.384c0 .154-.082.298-.216.376l-2.066 1.2c-.066.036-.14.056-.218.056zm.64-1.643c-.906 0-1.095-.415-1.095-.764 0-.033.03-.06.06-.06h.27c.03 0 .057.023.06.052.04.272.16.41.71.41.434 0 .62-.1.62-.33 0-.132-.05-.23-.73-.297-.565-.056-.915-.18-.915-.633 0-.417.352-.666.94-.666.663 0 .99.23 1.032.723.002.012-.004.03-.016.04s-.027.02-.044.02h-.268c-.028 0-.052-.02-.058-.047-.067-.286-.22-.378-.648-.378-.475 0-.53.165-.53.29 0 .15.064.193.706.278.633.084.935.203.935.65 0 .45-.375.707-1.03.707zm-7.24-1.683c.016-.004.035-.004.05 0l.422.248c.016.01.026.026.026.044v.486c0 .018-.01.035-.026.044l-.42.24c-.017.01-.036.01-.052 0l-.42-.24c-.016-.01-.025-.027-.025-.045v-.486c0-.02.01-.036.03-.045l.42-.243z"/></svg>