<svg xmlns="http://www.w3.org/2000/svg" width="32" height="32" viewBox="0 0 32 32"><path fill="#fff" d="M15.998 28.895c-.337 0-.673-.088-.97-.26l-3.085-1.825c-.46-.257-.235-.35-.083-.402.614-.213.74-.262 1.394-.635.07-.038.16-.024.23.018l2.37 1.41c.088.05.208.05.288 0l9.24-5.33c.087-.05.142-.15.142-.25V10.95c0-.104-.055-.202-.143-.255l-9.232-5.33c-.086-.05-.2-.05-.285 0l-9.235 5.332c-.09.05-.146.152-.146.253v10.666c0 .102.056.198.145.247l2.532 1.462c1.373.687 2.214-.122 2.214-.935V11.86c0-.15.12-.266.27-.266h1.17c.148 0 .27.117.27.266v10.53c0 1.833-1 2.885-2.737 2.885-.534 0-.955 0-2.13-.58L5.79 23.302c-.598-.345-.97-.992-.97-1.685V10.95c0-.693.372-1.34.97-1.684l9.242-5.34c.585-.33 1.362-.33 1.942 0l9.24 5.34c.6.346.972.992.972 1.684v10.665c0 .693-.372 1.337-.97 1.686l-9.242 5.34c-.296.17-.63.26-.973.26zm2.855-7.348c-4.045 0-4.892-1.857-4.892-3.414 0-.148.12-.266.27-.266h1.196c.133 0 .245.096.265.226.18 1.216.717 1.83 3.164 1.83 1.947 0 2.776-.44 2.776-1.472 0-.59-.236-1.032-3.26-1.33-2.53-.25-4.095-.81-4.095-2.83 0-1.865 1.572-2.98 4.207-2.98 2.96 0 4.425 1.03 4.61 3.235.008.075-.02.148-.07.205-.05.053-.12.085-.196.085h-1.2c-.124 0-.233-.088-.26-.21-.287-1.28-.987-1.688-2.885-1.688-2.124 0-2.37.74-2.37 1.295 0 .674.29.87 3.16 1.25 2.84.374 4.19.906 4.19 2.9 0 2.015-1.68 3.168-4.607 3.168z"/></svg>