<svg xmlns="http://www.w3.org/2000/svg" width="32" height="32" viewBox="0 0 32 32"><path fill="#fff" d="M10.372 13.07H6.405L4.69 21.752h2.037l.43-2.25h1.93c1.82.106 3.86-1.395 3.86-3.968 0-1.5-.86-2.36-2.574-2.466zm-1.5 4.824h-1.29l.537-3.216h1.39c.75 0 1.286.322 1.286.965-.107 1.823-.965 2.144-1.93 2.25zm8.683-4.825h-1.93l.43-2.256h-2.038L12.302 19.5h2.037l.96-4.823h1.61c.75 0 .75.322.642.858l-.75 3.967h2.144l.75-4.396c.213-1.072-.43-1.93-2.145-2.037zm7.183 0H20.77l-1.714 8.68h2.037l.43-2.25h1.93c1.822.105 3.86-1.396 3.86-3.97 0-1.5-.86-2.36-2.574-2.465zm-1.5 4.82H21.95l.536-3.216h1.394c.75 0 1.287.322 1.287.965-.107 1.823-.965 2.144-1.93 2.25z"/></svg>