<svg xmlns="http://www.w3.org/2000/svg" width="32" height="32" viewBox="0 0 32 32"><path fill="#fff" d="M6.08 23.835v5.32h16.767V18.482l-.87.097-.904.092-.097 4.417-.097 4.45H7.69V18.51H6.08v5.32zm2.902.806v.97H19.3v-1.933H8.982v.967zm.155-3.804l-.105.962 10.257 1.118.21-1.923-10.26-1.12-.108.964zm.77-4.55l-.25.934 9.965 2.675.502-1.868-9.965-2.676-.256.935zm2.117-5.304l-.515.82 8.73 5.493 1.03-1.637-8.735-5.494-.516.82zm4.94-4.94l-.796.55 5.853 8.497 1.598-1.098-5.855-8.5-.795.55zm6.45-2.49l-.952.178 1.893 10.143 1.902-.355L24.365 3.37l-.95.178z"/></svg>